<mxfile host="Electron" modified="2023-11-07T09:32:57.863Z" agent="Mozilla/5.0 (Windows NT 10.0; Win64; x64) AppleWebKit/537.36 (KHTML, like Gecko) draw.io/22.0.3 Chrome/114.0.5735.289 Electron/25.8.4 Safari/537.36" etag="5a6GlU8PviEt91_rpAdW" version="22.0.3" type="device">
  <diagram name="PÃ¡gina-1" id="BHrCa9ge2F1a9FvnaqaG">
    <mxGraphModel dx="3005" dy="2689" grid="1" gridSize="10" guides="1" tooltips="1" connect="1" arrows="1" fold="1" page="1" pageScale="1" pageWidth="827" pageHeight="1169" math="0" shadow="0">
      <root>
        <mxCell id="0" />
        <mxCell id="1" parent="0" />
        <mxCell id="OjxcFGNKwH3GC3r0dVM3-7" value="tarjeta supermercado" style="whiteSpace=wrap;html=1;align=center;" vertex="1" parent="1">
          <mxGeometry x="690" y="-10" width="100" height="40" as="geometry" />
        </mxCell>
        <mxCell id="OjxcFGNKwH3GC3r0dVM3-8" value="compra fisica" style="whiteSpace=wrap;html=1;align=center;" vertex="1" parent="1">
          <mxGeometry x="1000" y="520" width="100" height="40" as="geometry" />
        </mxCell>
        <mxCell id="OjxcFGNKwH3GC3r0dVM3-9" value="cliente" style="whiteSpace=wrap;html=1;align=center;" vertex="1" parent="1">
          <mxGeometry x="690" y="150" width="100" height="40" as="geometry" />
        </mxCell>
        <mxCell id="OjxcFGNKwH3GC3r0dVM3-10" value="estanterias" style="whiteSpace=wrap;html=1;align=center;" vertex="1" parent="1">
          <mxGeometry x="100" y="390" width="100" height="40" as="geometry" />
        </mxCell>
        <mxCell id="OjxcFGNKwH3GC3r0dVM3-11" value="productos" style="whiteSpace=wrap;html=1;align=center;" vertex="1" parent="1">
          <mxGeometry x="350" y="390" width="100" height="40" as="geometry" />
        </mxCell>
        <mxCell id="OjxcFGNKwH3GC3r0dVM3-18" value="identifica" style="shape=rhombus;perimeter=rhombusPerimeter;whiteSpace=wrap;html=1;align=center;" vertex="1" parent="1">
          <mxGeometry x="1140" y="-20" width="120" height="60" as="geometry" />
        </mxCell>
        <mxCell id="OjxcFGNKwH3GC3r0dVM3-38" value="nombre repartidor" style="ellipse;whiteSpace=wrap;html=1;align=center;" vertex="1" parent="1">
          <mxGeometry x="1191" y="140" width="100" height="40" as="geometry" />
        </mxCell>
        <mxCell id="OjxcFGNKwH3GC3r0dVM3-39" value="firma cliente y conformidad" style="ellipse;whiteSpace=wrap;html=1;align=center;" vertex="1" parent="1">
          <mxGeometry x="1370" y="210" width="100" height="40" as="geometry" />
        </mxCell>
        <mxCell id="OjxcFGNKwH3GC3r0dVM3-40" value="numero de compra" style="ellipse;whiteSpace=wrap;html=1;align=center;" vertex="1" parent="1">
          <mxGeometry x="760" y="630" width="100" height="40" as="geometry" />
        </mxCell>
        <mxCell id="OjxcFGNKwH3GC3r0dVM3-42" value="hora" style="ellipse;whiteSpace=wrap;html=1;align=center;" vertex="1" parent="1">
          <mxGeometry x="760" y="570" width="100" height="40" as="geometry" />
        </mxCell>
        <mxCell id="OjxcFGNKwH3GC3r0dVM3-43" value="fecha" style="ellipse;whiteSpace=wrap;html=1;align=center;" vertex="1" parent="1">
          <mxGeometry x="760" y="510" width="100" height="40" as="geometry" />
        </mxCell>
        <mxCell id="OjxcFGNKwH3GC3r0dVM3-44" value="importe" style="ellipse;whiteSpace=wrap;html=1;align=center;" vertex="1" parent="1">
          <mxGeometry x="760" y="450" width="100" height="40" as="geometry" />
        </mxCell>
        <mxCell id="OjxcFGNKwH3GC3r0dVM3-45" value="ubicacion" style="ellipse;whiteSpace=wrap;html=1;align=center;" vertex="1" parent="1">
          <mxGeometry x="10" y="520" width="100" height="40" as="geometry" />
        </mxCell>
        <mxCell id="OjxcFGNKwH3GC3r0dVM3-46" value="id_estanteria" style="ellipse;whiteSpace=wrap;html=1;align=center;" vertex="1" parent="1">
          <mxGeometry x="10" y="450" width="100" height="40" as="geometry" />
        </mxCell>
        <mxCell id="OjxcFGNKwH3GC3r0dVM3-48" value="dimensiones" style="ellipse;whiteSpace=wrap;html=1;align=center;" vertex="1" parent="1">
          <mxGeometry x="410" y="690" width="100" height="40" as="geometry" />
        </mxCell>
        <mxCell id="OjxcFGNKwH3GC3r0dVM3-49" value="peso" style="ellipse;whiteSpace=wrap;html=1;align=center;" vertex="1" parent="1">
          <mxGeometry x="410" y="620" width="100" height="40" as="geometry" />
        </mxCell>
        <mxCell id="OjxcFGNKwH3GC3r0dVM3-50" value="marca" style="ellipse;whiteSpace=wrap;html=1;align=center;" vertex="1" parent="1">
          <mxGeometry x="414" y="550" width="100" height="40" as="geometry" />
        </mxCell>
        <mxCell id="OjxcFGNKwH3GC3r0dVM3-51" value="id_producto" style="ellipse;whiteSpace=wrap;html=1;align=center;" vertex="1" parent="1">
          <mxGeometry x="414" y="470" width="100" height="40" as="geometry" />
        </mxCell>
        <mxCell id="OjxcFGNKwH3GC3r0dVM3-52" value="" style="endArrow=none;html=1;rounded=0;entryX=0;entryY=0.5;entryDx=0;entryDy=0;exitX=0.5;exitY=1;exitDx=0;exitDy=0;" edge="1" parent="1" source="OjxcFGNKwH3GC3r0dVM3-11" target="OjxcFGNKwH3GC3r0dVM3-51">
          <mxGeometry relative="1" as="geometry">
            <mxPoint x="370" y="430" as="sourcePoint" />
            <mxPoint x="530" y="430" as="targetPoint" />
            <Array as="points">
              <mxPoint x="400" y="490" />
            </Array>
          </mxGeometry>
        </mxCell>
        <mxCell id="OjxcFGNKwH3GC3r0dVM3-53" value="" style="endArrow=none;html=1;rounded=0;entryX=0;entryY=0.5;entryDx=0;entryDy=0;" edge="1" parent="1" target="OjxcFGNKwH3GC3r0dVM3-50">
          <mxGeometry relative="1" as="geometry">
            <mxPoint x="400" y="490" as="sourcePoint" />
            <mxPoint x="530" y="430" as="targetPoint" />
            <Array as="points">
              <mxPoint x="400" y="570" />
            </Array>
          </mxGeometry>
        </mxCell>
        <mxCell id="OjxcFGNKwH3GC3r0dVM3-54" value="" style="endArrow=none;html=1;rounded=0;entryX=0;entryY=0.5;entryDx=0;entryDy=0;" edge="1" parent="1" target="OjxcFGNKwH3GC3r0dVM3-49">
          <mxGeometry relative="1" as="geometry">
            <mxPoint x="400" y="570" as="sourcePoint" />
            <mxPoint x="530" y="430" as="targetPoint" />
            <Array as="points">
              <mxPoint x="400" y="640" />
            </Array>
          </mxGeometry>
        </mxCell>
        <mxCell id="OjxcFGNKwH3GC3r0dVM3-55" value="" style="endArrow=none;html=1;rounded=0;entryX=0;entryY=0.5;entryDx=0;entryDy=0;" edge="1" parent="1" target="OjxcFGNKwH3GC3r0dVM3-48">
          <mxGeometry relative="1" as="geometry">
            <mxPoint x="400" y="640" as="sourcePoint" />
            <mxPoint x="530" y="430" as="targetPoint" />
            <Array as="points">
              <mxPoint x="400" y="710" />
            </Array>
          </mxGeometry>
        </mxCell>
        <mxCell id="OjxcFGNKwH3GC3r0dVM3-57" value="" style="endArrow=none;html=1;rounded=0;entryX=0;entryY=0.5;entryDx=0;entryDy=0;" edge="1" parent="1" source="OjxcFGNKwH3GC3r0dVM3-10" target="OjxcFGNKwH3GC3r0dVM3-11">
          <mxGeometry relative="1" as="geometry">
            <mxPoint x="370" y="430" as="sourcePoint" />
            <mxPoint x="530" y="430" as="targetPoint" />
          </mxGeometry>
        </mxCell>
        <mxCell id="OjxcFGNKwH3GC3r0dVM3-123" value="1;n" style="edgeLabel;html=1;align=center;verticalAlign=middle;resizable=0;points=[];" vertex="1" connectable="0" parent="OjxcFGNKwH3GC3r0dVM3-57">
          <mxGeometry x="0.7228" y="2" relative="1" as="geometry">
            <mxPoint as="offset" />
          </mxGeometry>
        </mxCell>
        <mxCell id="OjxcFGNKwH3GC3r0dVM3-124" value="1;n" style="edgeLabel;html=1;align=center;verticalAlign=middle;resizable=0;points=[];" vertex="1" connectable="0" parent="OjxcFGNKwH3GC3r0dVM3-57">
          <mxGeometry x="-0.8221" y="2" relative="1" as="geometry">
            <mxPoint as="offset" />
          </mxGeometry>
        </mxCell>
        <mxCell id="OjxcFGNKwH3GC3r0dVM3-22" value="estan en&amp;nbsp;" style="shape=rhombus;perimeter=rhombusPerimeter;whiteSpace=wrap;html=1;align=center;" vertex="1" parent="1">
          <mxGeometry x="230" y="390" width="90" height="40" as="geometry" />
        </mxCell>
        <mxCell id="OjxcFGNKwH3GC3r0dVM3-58" value="" style="endArrow=none;html=1;rounded=0;exitX=1;exitY=0.5;exitDx=0;exitDy=0;entryX=0.5;entryY=1;entryDx=0;entryDy=0;" edge="1" parent="1" source="OjxcFGNKwH3GC3r0dVM3-46" target="OjxcFGNKwH3GC3r0dVM3-10">
          <mxGeometry relative="1" as="geometry">
            <mxPoint x="290" y="460" as="sourcePoint" />
            <mxPoint x="450" y="460" as="targetPoint" />
            <Array as="points">
              <mxPoint x="150" y="470" />
            </Array>
          </mxGeometry>
        </mxCell>
        <mxCell id="OjxcFGNKwH3GC3r0dVM3-59" value="" style="endArrow=none;html=1;rounded=0;exitX=1;exitY=0.5;exitDx=0;exitDy=0;" edge="1" parent="1" source="OjxcFGNKwH3GC3r0dVM3-45">
          <mxGeometry relative="1" as="geometry">
            <mxPoint x="290" y="460" as="sourcePoint" />
            <mxPoint x="150" y="470" as="targetPoint" />
            <Array as="points">
              <mxPoint x="150" y="540" />
            </Array>
          </mxGeometry>
        </mxCell>
        <mxCell id="OjxcFGNKwH3GC3r0dVM3-60" value="compra" style="whiteSpace=wrap;html=1;align=center;" vertex="1" parent="1">
          <mxGeometry x="690" y="390" width="100" height="40" as="geometry" />
        </mxCell>
        <mxCell id="OjxcFGNKwH3GC3r0dVM3-63" value="" style="endArrow=none;html=1;rounded=0;exitX=1;exitY=0.5;exitDx=0;exitDy=0;entryX=0;entryY=0.5;entryDx=0;entryDy=0;" edge="1" parent="1" source="OjxcFGNKwH3GC3r0dVM3-61" target="OjxcFGNKwH3GC3r0dVM3-60">
          <mxGeometry relative="1" as="geometry">
            <mxPoint x="500" y="460" as="sourcePoint" />
            <mxPoint x="660" y="460" as="targetPoint" />
          </mxGeometry>
        </mxCell>
        <mxCell id="OjxcFGNKwH3GC3r0dVM3-126" value="1;n" style="edgeLabel;html=1;align=center;verticalAlign=middle;resizable=0;points=[];" vertex="1" connectable="0" parent="OjxcFGNKwH3GC3r0dVM3-63">
          <mxGeometry x="0.0857" y="-4" relative="1" as="geometry">
            <mxPoint as="offset" />
          </mxGeometry>
        </mxCell>
        <mxCell id="OjxcFGNKwH3GC3r0dVM3-64" value="" style="endArrow=none;html=1;rounded=0;exitX=1;exitY=0.5;exitDx=0;exitDy=0;entryX=0;entryY=0.5;entryDx=0;entryDy=0;" edge="1" parent="1" source="OjxcFGNKwH3GC3r0dVM3-11" target="OjxcFGNKwH3GC3r0dVM3-61">
          <mxGeometry relative="1" as="geometry">
            <mxPoint x="450" y="410" as="sourcePoint" />
            <mxPoint x="690" y="410" as="targetPoint" />
          </mxGeometry>
        </mxCell>
        <mxCell id="OjxcFGNKwH3GC3r0dVM3-125" value="n;n" style="edgeLabel;html=1;align=center;verticalAlign=middle;resizable=0;points=[];" vertex="1" connectable="0" parent="OjxcFGNKwH3GC3r0dVM3-64">
          <mxGeometry x="-0.7" relative="1" as="geometry">
            <mxPoint as="offset" />
          </mxGeometry>
        </mxCell>
        <mxCell id="OjxcFGNKwH3GC3r0dVM3-61" value="compuesta por" style="shape=rhombus;perimeter=rhombusPerimeter;whiteSpace=wrap;html=1;align=center;" vertex="1" parent="1">
          <mxGeometry x="530" y="390" width="90" height="40" as="geometry" />
        </mxCell>
        <mxCell id="OjxcFGNKwH3GC3r0dVM3-65" value="" style="endArrow=none;html=1;rounded=0;exitX=0.5;exitY=1;exitDx=0;exitDy=0;entryX=0;entryY=0.5;entryDx=0;entryDy=0;" edge="1" parent="1" source="OjxcFGNKwH3GC3r0dVM3-60" target="OjxcFGNKwH3GC3r0dVM3-44">
          <mxGeometry relative="1" as="geometry">
            <mxPoint x="500" y="460" as="sourcePoint" />
            <mxPoint x="660" y="460" as="targetPoint" />
            <Array as="points">
              <mxPoint x="740" y="470" />
            </Array>
          </mxGeometry>
        </mxCell>
        <mxCell id="OjxcFGNKwH3GC3r0dVM3-66" value="" style="endArrow=none;html=1;rounded=0;exitX=0.5;exitY=1;exitDx=0;exitDy=0;entryX=0;entryY=0.5;entryDx=0;entryDy=0;" edge="1" parent="1" source="OjxcFGNKwH3GC3r0dVM3-60" target="OjxcFGNKwH3GC3r0dVM3-43">
          <mxGeometry relative="1" as="geometry">
            <mxPoint x="500" y="460" as="sourcePoint" />
            <mxPoint x="660" y="460" as="targetPoint" />
            <Array as="points">
              <mxPoint x="740" y="530" />
            </Array>
          </mxGeometry>
        </mxCell>
        <mxCell id="OjxcFGNKwH3GC3r0dVM3-67" value="" style="endArrow=none;html=1;rounded=0;exitX=0.5;exitY=1;exitDx=0;exitDy=0;entryX=0;entryY=0.5;entryDx=0;entryDy=0;" edge="1" parent="1" source="OjxcFGNKwH3GC3r0dVM3-60" target="OjxcFGNKwH3GC3r0dVM3-42">
          <mxGeometry relative="1" as="geometry">
            <mxPoint x="500" y="460" as="sourcePoint" />
            <mxPoint x="660" y="460" as="targetPoint" />
            <Array as="points">
              <mxPoint x="740" y="590" />
            </Array>
          </mxGeometry>
        </mxCell>
        <mxCell id="OjxcFGNKwH3GC3r0dVM3-68" value="" style="endArrow=none;html=1;rounded=0;entryX=0;entryY=0.5;entryDx=0;entryDy=0;" edge="1" parent="1" target="OjxcFGNKwH3GC3r0dVM3-40">
          <mxGeometry relative="1" as="geometry">
            <mxPoint x="740" y="590" as="sourcePoint" />
            <mxPoint x="850" y="470" as="targetPoint" />
            <Array as="points">
              <mxPoint x="740" y="650" />
            </Array>
          </mxGeometry>
        </mxCell>
        <mxCell id="OjxcFGNKwH3GC3r0dVM3-71" value="miembro de la familia" style="ellipse;whiteSpace=wrap;html=1;align=center;" vertex="1" parent="1">
          <mxGeometry x="842.5" y="-310" width="100" height="40" as="geometry" />
        </mxCell>
        <mxCell id="OjxcFGNKwH3GC3r0dVM3-72" value="numero de telefono" style="ellipse;whiteSpace=wrap;html=1;align=center;" vertex="1" parent="1">
          <mxGeometry x="850" y="-220" width="100" height="40" as="geometry" />
        </mxCell>
        <mxCell id="OjxcFGNKwH3GC3r0dVM3-73" value="codigo postla" style="ellipse;whiteSpace=wrap;html=1;align=center;" vertex="1" parent="1">
          <mxGeometry x="850" y="-130" width="100" height="40" as="geometry" />
        </mxCell>
        <mxCell id="OjxcFGNKwH3GC3r0dVM3-74" value="numero de caja" style="ellipse;whiteSpace=wrap;html=1;align=center;" vertex="1" parent="1">
          <mxGeometry x="1100" y="580" width="100" height="40" as="geometry" />
        </mxCell>
        <mxCell id="OjxcFGNKwH3GC3r0dVM3-75" value="hora reparto" style="ellipse;whiteSpace=wrap;html=1;align=center;" vertex="1" parent="1">
          <mxGeometry x="1270" y="460" width="100" height="40" as="geometry" />
        </mxCell>
        <mxCell id="OjxcFGNKwH3GC3r0dVM3-76" value="direccion" style="ellipse;whiteSpace=wrap;html=1;align=center;" vertex="1" parent="1">
          <mxGeometry x="1270" y="400" width="100" height="40" as="geometry" />
        </mxCell>
        <mxCell id="OjxcFGNKwH3GC3r0dVM3-77" value="ip" style="ellipse;whiteSpace=wrap;html=1;align=center;" vertex="1" parent="1">
          <mxGeometry x="1270" y="335" width="100" height="40" as="geometry" />
        </mxCell>
        <mxCell id="OjxcFGNKwH3GC3r0dVM3-78" value="cantidad productos" style="ellipse;whiteSpace=wrap;html=1;align=center;" vertex="1" parent="1">
          <mxGeometry x="750" y="700" width="100" height="40" as="geometry" />
        </mxCell>
        <mxCell id="OjxcFGNKwH3GC3r0dVM3-79" value="" style="endArrow=none;html=1;rounded=0;exitX=0.5;exitY=1;exitDx=0;exitDy=0;" edge="1" parent="1" source="OjxcFGNKwH3GC3r0dVM3-60" target="OjxcFGNKwH3GC3r0dVM3-78">
          <mxGeometry relative="1" as="geometry">
            <mxPoint x="600" y="370" as="sourcePoint" />
            <mxPoint x="760" y="370" as="targetPoint" />
            <Array as="points">
              <mxPoint x="740" y="720" />
            </Array>
          </mxGeometry>
        </mxCell>
        <mxCell id="OjxcFGNKwH3GC3r0dVM3-80" value="compra online" style="whiteSpace=wrap;html=1;align=center;" vertex="1" parent="1">
          <mxGeometry x="1020" y="320" width="100" height="40" as="geometry" />
        </mxCell>
        <mxCell id="OjxcFGNKwH3GC3r0dVM3-82" value="" style="endArrow=none;html=1;rounded=0;entryX=0;entryY=0.5;entryDx=0;entryDy=0;exitX=1;exitY=0.5;exitDx=0;exitDy=0;" edge="1" parent="1" source="OjxcFGNKwH3GC3r0dVM3-81" target="OjxcFGNKwH3GC3r0dVM3-80">
          <mxGeometry relative="1" as="geometry">
            <mxPoint x="760" y="370" as="sourcePoint" />
            <mxPoint x="920" y="370" as="targetPoint" />
          </mxGeometry>
        </mxCell>
        <mxCell id="OjxcFGNKwH3GC3r0dVM3-132" value="n;1" style="edgeLabel;html=1;align=center;verticalAlign=middle;resizable=0;points=[];" vertex="1" connectable="0" parent="OjxcFGNKwH3GC3r0dVM3-82">
          <mxGeometry x="0.2605" relative="1" as="geometry">
            <mxPoint as="offset" />
          </mxGeometry>
        </mxCell>
        <mxCell id="OjxcFGNKwH3GC3r0dVM3-83" value="" style="endArrow=none;html=1;rounded=0;entryX=0;entryY=0.5;entryDx=0;entryDy=0;exitX=1;exitY=0.5;exitDx=0;exitDy=0;" edge="1" parent="1" source="OjxcFGNKwH3GC3r0dVM3-9" target="OjxcFGNKwH3GC3r0dVM3-81">
          <mxGeometry relative="1" as="geometry">
            <mxPoint x="756" y="390" as="sourcePoint" />
            <mxPoint x="1060" y="280" as="targetPoint" />
          </mxGeometry>
        </mxCell>
        <mxCell id="OjxcFGNKwH3GC3r0dVM3-131" value="1;n" style="edgeLabel;html=1;align=center;verticalAlign=middle;resizable=0;points=[];" vertex="1" connectable="0" parent="OjxcFGNKwH3GC3r0dVM3-83">
          <mxGeometry x="-0.5517" y="-1" relative="1" as="geometry">
            <mxPoint as="offset" />
          </mxGeometry>
        </mxCell>
        <mxCell id="OjxcFGNKwH3GC3r0dVM3-81" value="puede realizar" style="shape=rhombus;perimeter=rhombusPerimeter;whiteSpace=wrap;html=1;align=center;" vertex="1" parent="1">
          <mxGeometry x="890" y="190" width="90" height="40" as="geometry" />
        </mxCell>
        <mxCell id="OjxcFGNKwH3GC3r0dVM3-84" value="" style="endArrow=none;html=1;rounded=0;exitX=0.5;exitY=1;exitDx=0;exitDy=0;" edge="1" parent="1" source="OjxcFGNKwH3GC3r0dVM3-80">
          <mxGeometry relative="1" as="geometry">
            <mxPoint x="960" y="370" as="sourcePoint" />
            <mxPoint x="1270" y="360" as="targetPoint" />
            <Array as="points" />
          </mxGeometry>
        </mxCell>
        <mxCell id="OjxcFGNKwH3GC3r0dVM3-85" value="" style="endArrow=none;html=1;rounded=0;exitX=0.5;exitY=1;exitDx=0;exitDy=0;entryX=0;entryY=0.5;entryDx=0;entryDy=0;" edge="1" parent="1" source="OjxcFGNKwH3GC3r0dVM3-80" target="OjxcFGNKwH3GC3r0dVM3-76">
          <mxGeometry relative="1" as="geometry">
            <mxPoint x="960" y="370" as="sourcePoint" />
            <mxPoint x="1120" y="370" as="targetPoint" />
            <Array as="points">
              <mxPoint x="1070" y="420" />
            </Array>
          </mxGeometry>
        </mxCell>
        <mxCell id="OjxcFGNKwH3GC3r0dVM3-86" value="" style="endArrow=none;html=1;rounded=0;exitX=0.5;exitY=1;exitDx=0;exitDy=0;entryX=0;entryY=0.5;entryDx=0;entryDy=0;" edge="1" parent="1" source="OjxcFGNKwH3GC3r0dVM3-80" target="OjxcFGNKwH3GC3r0dVM3-75">
          <mxGeometry relative="1" as="geometry">
            <mxPoint x="960" y="370" as="sourcePoint" />
            <mxPoint x="1120" y="370" as="targetPoint" />
            <Array as="points">
              <mxPoint x="1070" y="480" />
            </Array>
          </mxGeometry>
        </mxCell>
        <mxCell id="OjxcFGNKwH3GC3r0dVM3-90" value="" style="endArrow=none;html=1;rounded=0;entryX=0;entryY=0.5;entryDx=0;entryDy=0;exitX=0.5;exitY=1;exitDx=0;exitDy=0;exitPerimeter=0;" edge="1" parent="1" source="OjxcFGNKwH3GC3r0dVM3-93" target="OjxcFGNKwH3GC3r0dVM3-80">
          <mxGeometry relative="1" as="geometry">
            <mxPoint x="990" y="320" as="sourcePoint" />
            <mxPoint x="990" y="410" as="targetPoint" />
          </mxGeometry>
        </mxCell>
        <mxCell id="OjxcFGNKwH3GC3r0dVM3-93" value="isa" style="strokeWidth=2;html=1;shape=mxgraph.flowchart.merge_or_storage;whiteSpace=wrap;rotation=-90;" vertex="1" parent="1">
          <mxGeometry x="870" y="375" width="72.5" height="50" as="geometry" />
        </mxCell>
        <mxCell id="OjxcFGNKwH3GC3r0dVM3-96" value="" style="endArrow=none;html=1;rounded=0;entryX=0.5;entryY=0;entryDx=0;entryDy=0;entryPerimeter=0;exitX=0.5;exitY=1;exitDx=0;exitDy=0;" edge="1" parent="1" source="OjxcFGNKwH3GC3r0dVM3-19" target="OjxcFGNKwH3GC3r0dVM3-9">
          <mxGeometry relative="1" as="geometry">
            <mxPoint x="440" y="110" as="sourcePoint" />
            <mxPoint x="600" y="110" as="targetPoint" />
          </mxGeometry>
        </mxCell>
        <mxCell id="OjxcFGNKwH3GC3r0dVM3-127" value="1;1" style="edgeLabel;html=1;align=center;verticalAlign=middle;resizable=0;points=[];" vertex="1" connectable="0" parent="OjxcFGNKwH3GC3r0dVM3-96">
          <mxGeometry x="-0.1" y="4" relative="1" as="geometry">
            <mxPoint as="offset" />
          </mxGeometry>
        </mxCell>
        <mxCell id="OjxcFGNKwH3GC3r0dVM3-97" value="" style="endArrow=none;html=1;rounded=0;entryX=0.5;entryY=0;entryDx=0;entryDy=0;exitX=0.5;exitY=1;exitDx=0;exitDy=0;" edge="1" parent="1" source="OjxcFGNKwH3GC3r0dVM3-7" target="OjxcFGNKwH3GC3r0dVM3-19">
          <mxGeometry relative="1" as="geometry">
            <mxPoint x="740" y="30" as="sourcePoint" />
            <mxPoint x="739" y="144" as="targetPoint" />
            <Array as="points">
              <mxPoint x="740" y="40" />
            </Array>
          </mxGeometry>
        </mxCell>
        <mxCell id="OjxcFGNKwH3GC3r0dVM3-128" value="1;1" style="edgeLabel;html=1;align=center;verticalAlign=middle;resizable=0;points=[];" vertex="1" connectable="0" parent="OjxcFGNKwH3GC3r0dVM3-97">
          <mxGeometry x="-0.45" y="2" relative="1" as="geometry">
            <mxPoint as="offset" />
          </mxGeometry>
        </mxCell>
        <mxCell id="OjxcFGNKwH3GC3r0dVM3-19" value="tiene" style="shape=rhombus;perimeter=rhombusPerimeter;whiteSpace=wrap;html=1;align=center;" vertex="1" parent="1">
          <mxGeometry x="690" y="70" width="100" height="40" as="geometry" />
        </mxCell>
        <mxCell id="OjxcFGNKwH3GC3r0dVM3-98" value="" style="endArrow=none;html=1;rounded=0;exitX=1;exitY=0.5;exitDx=0;exitDy=0;entryX=0;entryY=0.5;entryDx=0;entryDy=0;" edge="1" parent="1" source="OjxcFGNKwH3GC3r0dVM3-6" target="OjxcFGNKwH3GC3r0dVM3-18">
          <mxGeometry relative="1" as="geometry">
            <mxPoint x="790" y="110" as="sourcePoint" />
            <mxPoint x="950" y="110" as="targetPoint" />
          </mxGeometry>
        </mxCell>
        <mxCell id="OjxcFGNKwH3GC3r0dVM3-99" value="" style="endArrow=none;html=1;rounded=0;exitX=1;exitY=0.5;exitDx=0;exitDy=0;entryX=1;entryY=0.5;entryDx=0;entryDy=0;" edge="1" parent="1" source="OjxcFGNKwH3GC3r0dVM3-18" target="OjxcFGNKwH3GC3r0dVM3-8">
          <mxGeometry relative="1" as="geometry">
            <mxPoint x="790" y="110" as="sourcePoint" />
            <mxPoint x="950" y="110" as="targetPoint" />
            <Array as="points">
              <mxPoint x="1510" y="10" />
              <mxPoint x="1510" y="540" />
            </Array>
          </mxGeometry>
        </mxCell>
        <mxCell id="OjxcFGNKwH3GC3r0dVM3-133" value="1;1" style="edgeLabel;html=1;align=center;verticalAlign=middle;resizable=0;points=[];" vertex="1" connectable="0" parent="OjxcFGNKwH3GC3r0dVM3-99">
          <mxGeometry x="0.9361" y="2" relative="1" as="geometry">
            <mxPoint as="offset" />
          </mxGeometry>
        </mxCell>
        <mxCell id="OjxcFGNKwH3GC3r0dVM3-134" value="1;n" style="edgeLabel;html=1;align=center;verticalAlign=middle;resizable=0;points=[];" vertex="1" connectable="0" parent="OjxcFGNKwH3GC3r0dVM3-99">
          <mxGeometry x="-0.9613" y="4" relative="1" as="geometry">
            <mxPoint as="offset" />
          </mxGeometry>
        </mxCell>
        <mxCell id="OjxcFGNKwH3GC3r0dVM3-101" value="" style="endArrow=none;html=1;rounded=0;exitX=1;exitY=0.5;exitDx=0;exitDy=0;entryX=0;entryY=0.5;entryDx=0;entryDy=0;" edge="1" parent="1" source="OjxcFGNKwH3GC3r0dVM3-7" target="OjxcFGNKwH3GC3r0dVM3-17">
          <mxGeometry relative="1" as="geometry">
            <mxPoint x="790" y="10" as="sourcePoint" />
            <mxPoint x="1140" y="10" as="targetPoint" />
          </mxGeometry>
        </mxCell>
        <mxCell id="OjxcFGNKwH3GC3r0dVM3-129" value="1;1" style="edgeLabel;html=1;align=center;verticalAlign=middle;resizable=0;points=[];" vertex="1" connectable="0" parent="OjxcFGNKwH3GC3r0dVM3-101">
          <mxGeometry x="-0.2889" y="4" relative="1" as="geometry">
            <mxPoint as="offset" />
          </mxGeometry>
        </mxCell>
        <mxCell id="OjxcFGNKwH3GC3r0dVM3-17" value="tiene" style="shape=rhombus;perimeter=rhombusPerimeter;whiteSpace=wrap;html=1;align=center;" vertex="1" parent="1">
          <mxGeometry x="880" y="-10" width="70" height="40" as="geometry" />
        </mxCell>
        <mxCell id="OjxcFGNKwH3GC3r0dVM3-102" value="" style="endArrow=none;html=1;rounded=0;exitX=1;exitY=0.5;exitDx=0;exitDy=0;entryX=0;entryY=0.5;entryDx=0;entryDy=0;" edge="1" parent="1" source="OjxcFGNKwH3GC3r0dVM3-17" target="OjxcFGNKwH3GC3r0dVM3-6">
          <mxGeometry relative="1" as="geometry">
            <mxPoint x="950" y="10" as="sourcePoint" />
            <mxPoint x="1140" y="10" as="targetPoint" />
          </mxGeometry>
        </mxCell>
        <mxCell id="OjxcFGNKwH3GC3r0dVM3-130" value="1;1" style="edgeLabel;html=1;align=center;verticalAlign=middle;resizable=0;points=[];" vertex="1" connectable="0" parent="OjxcFGNKwH3GC3r0dVM3-102">
          <mxGeometry x="0.3333" relative="1" as="geometry">
            <mxPoint as="offset" />
          </mxGeometry>
        </mxCell>
        <mxCell id="OjxcFGNKwH3GC3r0dVM3-6" value="numero de tarjeta" style="whiteSpace=wrap;html=1;align=center;" vertex="1" parent="1">
          <mxGeometry x="980" y="-10" width="100" height="40" as="geometry" />
        </mxCell>
        <mxCell id="OjxcFGNKwH3GC3r0dVM3-103" value="" style="endArrow=none;html=1;rounded=0;exitX=0.5;exitY=0;exitDx=0;exitDy=0;entryX=0;entryY=0.5;entryDx=0;entryDy=0;" edge="1" parent="1" source="OjxcFGNKwH3GC3r0dVM3-7" target="OjxcFGNKwH3GC3r0dVM3-73">
          <mxGeometry relative="1" as="geometry">
            <mxPoint x="860" y="-60" as="sourcePoint" />
            <mxPoint x="1020" y="-60" as="targetPoint" />
            <Array as="points">
              <mxPoint x="740" y="-110" />
            </Array>
          </mxGeometry>
        </mxCell>
        <mxCell id="OjxcFGNKwH3GC3r0dVM3-104" value="" style="endArrow=none;html=1;rounded=0;exitX=0.5;exitY=0;exitDx=0;exitDy=0;entryX=0;entryY=0.5;entryDx=0;entryDy=0;" edge="1" parent="1" source="OjxcFGNKwH3GC3r0dVM3-7" target="OjxcFGNKwH3GC3r0dVM3-72">
          <mxGeometry relative="1" as="geometry">
            <mxPoint x="860" y="-60" as="sourcePoint" />
            <mxPoint x="1020" y="-60" as="targetPoint" />
            <Array as="points">
              <mxPoint x="740" y="-200" />
            </Array>
          </mxGeometry>
        </mxCell>
        <mxCell id="OjxcFGNKwH3GC3r0dVM3-105" value="" style="endArrow=none;html=1;rounded=0;exitX=0.5;exitY=0;exitDx=0;exitDy=0;entryX=0;entryY=0.5;entryDx=0;entryDy=0;" edge="1" parent="1" source="OjxcFGNKwH3GC3r0dVM3-7" target="OjxcFGNKwH3GC3r0dVM3-71">
          <mxGeometry relative="1" as="geometry">
            <mxPoint x="860" y="-60" as="sourcePoint" />
            <mxPoint x="1020" y="-60" as="targetPoint" />
            <Array as="points">
              <mxPoint x="740" y="-290" />
            </Array>
          </mxGeometry>
        </mxCell>
        <mxCell id="OjxcFGNKwH3GC3r0dVM3-108" value="" style="endArrow=none;html=1;rounded=0;exitX=1;exitY=0.5;exitDx=0;exitDy=0;entryX=0.5;entryY=1;entryDx=0;entryDy=0;" edge="1" parent="1" source="OjxcFGNKwH3GC3r0dVM3-16" target="OjxcFGNKwH3GC3r0dVM3-5">
          <mxGeometry relative="1" as="geometry">
            <mxPoint x="1120" y="340" as="sourcePoint" />
            <mxPoint x="1260" y="300" as="targetPoint" />
          </mxGeometry>
        </mxCell>
        <mxCell id="OjxcFGNKwH3GC3r0dVM3-137" value="1;n" style="edgeLabel;html=1;align=center;verticalAlign=middle;resizable=0;points=[];" vertex="1" connectable="0" parent="OjxcFGNKwH3GC3r0dVM3-108">
          <mxGeometry x="0.2212" y="-3" relative="1" as="geometry">
            <mxPoint as="offset" />
          </mxGeometry>
        </mxCell>
        <mxCell id="OjxcFGNKwH3GC3r0dVM3-5" value="repartidor" style="whiteSpace=wrap;html=1;align=center;" vertex="1" parent="1">
          <mxGeometry x="1250" y="250" width="100" height="40" as="geometry" />
        </mxCell>
        <mxCell id="OjxcFGNKwH3GC3r0dVM3-110" value="" style="endArrow=none;html=1;rounded=0;exitX=1;exitY=0.5;exitDx=0;exitDy=0;entryX=0.5;entryY=1;entryDx=0;entryDy=0;" edge="1" parent="1" source="OjxcFGNKwH3GC3r0dVM3-80" target="OjxcFGNKwH3GC3r0dVM3-16">
          <mxGeometry relative="1" as="geometry">
            <mxPoint x="1120" y="340" as="sourcePoint" />
            <mxPoint x="1330" y="290" as="targetPoint" />
          </mxGeometry>
        </mxCell>
        <mxCell id="OjxcFGNKwH3GC3r0dVM3-135" value="1;n" style="edgeLabel;html=1;align=center;verticalAlign=middle;resizable=0;points=[];" vertex="1" connectable="0" parent="OjxcFGNKwH3GC3r0dVM3-110">
          <mxGeometry x="-0.3805" y="-1" relative="1" as="geometry">
            <mxPoint as="offset" />
          </mxGeometry>
        </mxCell>
        <mxCell id="OjxcFGNKwH3GC3r0dVM3-16" value="reparte" style="shape=rhombus;perimeter=rhombusPerimeter;whiteSpace=wrap;html=1;align=center;" vertex="1" parent="1">
          <mxGeometry x="1180" y="300" width="80" height="35" as="geometry" />
        </mxCell>
        <mxCell id="OjxcFGNKwH3GC3r0dVM3-111" value="quien ha recogido" style="ellipse;whiteSpace=wrap;html=1;align=center;" vertex="1" parent="1">
          <mxGeometry x="1350" y="140" width="100" height="40" as="geometry" />
        </mxCell>
        <mxCell id="OjxcFGNKwH3GC3r0dVM3-112" value="direccion entrega" style="ellipse;whiteSpace=wrap;html=1;align=center;" vertex="1" parent="1">
          <mxGeometry x="1380" y="270" width="100" height="40" as="geometry" />
        </mxCell>
        <mxCell id="OjxcFGNKwH3GC3r0dVM3-113" value="" style="endArrow=none;html=1;rounded=0;exitX=1;exitY=0.5;exitDx=0;exitDy=0;entryX=0;entryY=0.5;entryDx=0;entryDy=0;" edge="1" parent="1" source="OjxcFGNKwH3GC3r0dVM3-5" target="OjxcFGNKwH3GC3r0dVM3-112">
          <mxGeometry relative="1" as="geometry">
            <mxPoint x="1340" y="450" as="sourcePoint" />
            <mxPoint x="1500" y="450" as="targetPoint" />
          </mxGeometry>
        </mxCell>
        <mxCell id="OjxcFGNKwH3GC3r0dVM3-114" value="" style="endArrow=none;html=1;rounded=0;exitX=1;exitY=0.5;exitDx=0;exitDy=0;entryX=0;entryY=0.5;entryDx=0;entryDy=0;" edge="1" parent="1" source="OjxcFGNKwH3GC3r0dVM3-5" target="OjxcFGNKwH3GC3r0dVM3-39">
          <mxGeometry relative="1" as="geometry">
            <mxPoint x="1340" y="450" as="sourcePoint" />
            <mxPoint x="1500" y="450" as="targetPoint" />
          </mxGeometry>
        </mxCell>
        <mxCell id="OjxcFGNKwH3GC3r0dVM3-115" value="" style="endArrow=none;html=1;rounded=0;exitX=1;exitY=0.5;exitDx=0;exitDy=0;entryX=0;entryY=0.5;entryDx=0;entryDy=0;" edge="1" parent="1" source="OjxcFGNKwH3GC3r0dVM3-5" target="OjxcFGNKwH3GC3r0dVM3-111">
          <mxGeometry relative="1" as="geometry">
            <mxPoint x="1340" y="450" as="sourcePoint" />
            <mxPoint x="1500" y="450" as="targetPoint" />
          </mxGeometry>
        </mxCell>
        <mxCell id="OjxcFGNKwH3GC3r0dVM3-118" value="telefono repartidor" style="ellipse;whiteSpace=wrap;html=1;align=center;" vertex="1" parent="1">
          <mxGeometry x="1190" y="200" width="100" height="40" as="geometry" />
        </mxCell>
        <mxCell id="OjxcFGNKwH3GC3r0dVM3-119" value="" style="endArrow=none;html=1;rounded=0;exitX=1;exitY=0.5;exitDx=0;exitDy=0;entryX=0.5;entryY=0;entryDx=0;entryDy=0;" edge="1" parent="1" source="OjxcFGNKwH3GC3r0dVM3-38" target="OjxcFGNKwH3GC3r0dVM3-5">
          <mxGeometry relative="1" as="geometry">
            <mxPoint x="900" y="450" as="sourcePoint" />
            <mxPoint x="1060" y="450" as="targetPoint" />
          </mxGeometry>
        </mxCell>
        <mxCell id="OjxcFGNKwH3GC3r0dVM3-120" value="" style="endArrow=none;html=1;rounded=0;exitX=1;exitY=0.5;exitDx=0;exitDy=0;" edge="1" parent="1" source="OjxcFGNKwH3GC3r0dVM3-118" target="OjxcFGNKwH3GC3r0dVM3-5">
          <mxGeometry relative="1" as="geometry">
            <mxPoint x="900" y="450" as="sourcePoint" />
            <mxPoint x="1060" y="450" as="targetPoint" />
          </mxGeometry>
        </mxCell>
        <mxCell id="OjxcFGNKwH3GC3r0dVM3-121" value="" style="endArrow=none;html=1;rounded=0;exitX=1;exitY=0.5;exitDx=0;exitDy=0;" edge="1" parent="1" source="OjxcFGNKwH3GC3r0dVM3-60" target="OjxcFGNKwH3GC3r0dVM3-93">
          <mxGeometry relative="1" as="geometry">
            <mxPoint x="900" y="450" as="sourcePoint" />
            <mxPoint x="1060" y="450" as="targetPoint" />
          </mxGeometry>
        </mxCell>
        <mxCell id="OjxcFGNKwH3GC3r0dVM3-122" value="" style="endArrow=none;html=1;rounded=0;entryX=0;entryY=0.5;entryDx=0;entryDy=0;exitX=0.5;exitY=1;exitDx=0;exitDy=0;" edge="1" parent="1" source="OjxcFGNKwH3GC3r0dVM3-8" target="OjxcFGNKwH3GC3r0dVM3-74">
          <mxGeometry relative="1" as="geometry">
            <mxPoint x="900" y="450" as="sourcePoint" />
            <mxPoint x="1060" y="450" as="targetPoint" />
            <Array as="points">
              <mxPoint x="1050" y="600" />
            </Array>
          </mxGeometry>
        </mxCell>
      </root>
    </mxGraphModel>
  </diagram>
</mxfile>
